<?xml version="1.0" standalone="no"?>
<!DOCTYPE svg PUBLIC "-//W3C//DTD SVG 20010904//EN"
 "http://www.w3.org/TR/2001/REC-SVG-20010904/DTD/svg10.dtd">
<svg version="1.0" xmlns="http://www.w3.org/2000/svg"
 width="998.000000pt" height="998.000000pt" viewBox="0 0 998.000000 998.000000"
 preserveAspectRatio="xMidYMid meet">
<metadata>
Created by potrace 1.14, written by Peter Selinger 2001-2017
</metadata>
<g transform="translate(0.000000,998.000000) scale(0.100000,-0.100000)"
fill="#000000" stroke="none">
<path d="M8145 5656 c-102 -44 -122 -172 -40 -245 45 -39 94 -48 149 -27 116
44 128 201 20 263 -44 26 -85 28 -129 9z"/>
<path d="M920 5582 c-124 -33 -223 -115 -256 -214 -23 -70 -16 -217 13 -274
48 -92 137 -145 336 -203 172 -49 206 -66 224 -109 42 -100 -60 -172 -202
-142 -67 14 -170 65 -231 115 -23 19 -46 35 -51 35 -4 0 -36 -36 -71 -80 -34
-43 -68 -78 -75 -76 -7 1 -9 1 -5 -1 4 -2 5 -10 2 -17 -7 -19 76 -87 166 -135
181 -96 408 -108 562 -30 62 32 133 104 159 162 34 74 34 210 0 284 -47 105
-141 165 -351 222 -141 39 -193 63 -208 97 -15 31 -15 69 -2 95 42 77 244 66
381 -22 27 -17 53 -28 58 -25 16 10 121 164 121 178 0 7 -22 28 -49 46 -140
96 -361 136 -521 94z"/>
<path d="M5026 5562 c-3 -4 -55 -125 -116 -268 -61 -142 -117 -263 -124 -269
-7 -5 -11 -14 -10 -20 2 -5 -52 -138 -120 -295 -68 -157 -121 -288 -119 -292
2 -5 64 -8 138 -8 l133 0 53 125 53 125 242 0 241 0 48 -112 c27 -62 53 -119
58 -125 7 -9 48 -13 143 -13 74 0 134 3 134 6 0 3 -57 136 -126 296 -99 229
-123 293 -112 300 10 8 10 9 -2 5 -12 -4 -43 58 -135 274 l-120 279 -127 0
c-70 0 -129 -4 -132 -8z m202 -509 c34 -82 62 -150 62 -153 0 -7 -270 -6 -270
1 0 4 20 51 44 105 24 55 53 120 64 147 12 26 25 47 29 47 5 0 37 -66 71 -147z"/>
<path d="M5912 4993 l3 -578 280 -3 c171 -2 305 2 345 8 130 22 220 82 267
178 24 48 28 69 28 137 0 67 -5 88 -27 130 -33 63 -69 97 -136 128 l-53 25 33
20 c85 53 118 116 118 226 0 64 -4 83 -32 137 -39 73 -82 111 -163 141 -56 21
-78 23 -363 26 l-302 3 2 -578z m536 333 c18 -9 37 -28 42 -42 14 -35 12 -74
-2 -74 -10 0 -10 -2 -1 -8 18 -12 4 -49 -26 -69 -21 -14 -52 -19 -158 -21
l-133 -4 0 114 c0 63 3 118 8 122 14 15 235 0 270 -18z m33 -446 c58 -16 83
-51 83 -115 0 -43 -4 -59 -24 -80 -34 -36 -78 -45 -232 -45 l-138 0 0 123 c0
68 3 127 8 132 9 10 257 -2 303 -15z"/>
<path d="M1947 5305 c-64 -13 -190 -67 -230 -99 -18 -14 -17 -18 24 -78 70
-105 63 -101 123 -68 58 33 153 60 206 59 80 -1 132 -38 143 -105 l6 -31 -152
-6 c-170 -6 -228 -19 -303 -70 -71 -47 -99 -108 -98 -212 0 -96 20 -140 89
-204 74 -68 123 -86 235 -86 103 0 130 9 200 67 l35 29 5 -43 5 -43 115 0 115
0 0 325 c0 373 -3 394 -71 469 -66 74 -140 103 -273 107 -66 2 -132 -2 -174
-11z m263 -565 c-11 -89 -81 -137 -186 -128 -67 6 -104 35 -104 84 0 77 31 93
186 94 l110 0 -6 -50z"/>
<path d="M3935 5306 c-149 -37 -271 -151 -316 -297 -26 -83 -26 -216 1 -300
10 -34 17 -66 14 -71 -3 -4 -1 -8 5 -8 5 0 26 -23 46 -50 20 -28 61 -68 91
-89 29 -21 51 -41 48 -44 -4 -3 2 -6 12 -5 11 0 39 -7 64 -17 68 -26 222 -32
296 -10 67 19 156 64 197 100 34 30 31 38 -52 119 -56 55 -62 59 -78 44 -73
-64 -204 -85 -291 -48 -47 21 -112 78 -112 100 0 4 -3 15 -6 24 -6 14 27 16
320 16 l326 0 0 88 c0 102 -21 200 -55 257 -30 51 -110 127 -163 154 -96 49
-238 64 -347 37z m205 -212 c45 -18 89 -69 68 -77 -8 -3 -6 -6 5 -6 9 -1 17
-4 17 -8 0 -5 3 -18 6 -30 l6 -23 -191 0 c-210 0 -207 -1 -176 60 16 31 66 73
105 89 38 15 115 13 160 -5z"/>
<path d="M2570 5304 c0 -4 72 -190 160 -413 89 -223 167 -422 174 -441 l14
-35 130 -3 130 -3 42 108 c23 59 103 260 176 446 74 187 134 341 134 343 0 3
-59 3 -131 2 l-132 -3 -93 -235 c-51 -129 -97 -236 -102 -238 -6 -2 -8 -11 -6
-20 4 -17 -11 -50 -20 -42 -14 16 -172 430 -163 430 6 0 3 6 -6 13 -9 6 -23
30 -30 52 l-14 40 -131 3 c-73 1 -132 -1 -132 -4z"/>
<path d="M7006 5294 c-10 -26 -6 -523 4 -597 26 -177 143 -285 321 -295 66 -4
84 -1 131 20 30 14 70 39 90 57 l37 32 3 -48 3 -48 125 0 125 0 0 445 0 445
-127 3 -128 3 0 -263 c0 -150 -5 -279 -10 -300 -31 -109 -163 -164 -251 -105
-61 40 -68 82 -69 395 l0 272 -124 0 c-104 0 -125 -3 -130 -16z"/>
<path d="M8075 5298 c-3 -7 -4 -209 -3 -448 l3 -435 125 0 125 0 0 445 0 445
-123 3 c-92 2 -124 -1 -127 -10z"/>
<path d="M8540 5205 l0 -105 190 0 c105 0 190 -2 190 -5 0 -3 -92 -111 -205
-240 l-205 -234 0 -106 0 -105 388 2 387 3 3 103 3 102 -219 0 c-120 0 -221 3
-225 6 -3 3 89 112 204 242 l209 237 0 102 0 103 -360 0 -360 0 0 -105z"/>
</g>
</svg>
